<?xml version="1.0" standalone="no"?>
<!DOCTYPE svg PUBLIC "-//W3C//DTD SVG 20010904//EN"
 "http://www.w3.org/TR/2001/REC-SVG-20010904/DTD/svg10.dtd">
<svg version="1.0" xmlns="http://www.w3.org/2000/svg"
 width="822.000000pt" height="822.000000pt" viewBox="0 0 822.000000 822.000000"
 preserveAspectRatio="xMidYMid meet">
<metadata>
Created by potrace 1.14, written by Peter Selinger 2001-2017
</metadata>
<g transform="translate(0.000000,822.000000) scale(0.100000,-0.100000)"
fill="#000000" stroke="none">
<path d="M3918 8213 c-10 -3 -18 -8 -18 -11 0 -4 -17 -8 -37 -8 -53 -2 -116
-13 -123 -22 -3 -4 -20 -8 -38 -10 -19 -1 -44 -8 -55 -14 -12 -7 -26 -13 -32
-13 -29 -3 -65 -18 -65 -28 0 -6 -3 -7 -7 -4 -3 4 -12 2 -20 -4 -7 -6 -13 -8
-13 -4 0 5 -9 0 -21 -11 -12 -10 -22 -17 -23 -15 -2 8 -46 -11 -46 -20 0 -5
-3 -8 -7 -7 -17 5 -143 -74 -198 -123 -111 -100 -155 -144 -155 -155 0 -8 -4
-14 -10 -14 -10 0 -97 -129 -102 -151 -2 -8 -9 -20 -16 -27 -7 -8 -10 -17 -7
-22 3 -5 0 -10 -5 -12 -6 -2 -12 -10 -14 -18 -1 -8 -10 -32 -19 -54 -10 -21
-19 -48 -22 -60 -2 -11 -7 -32 -10 -46 -3 -14 -8 -34 -10 -45 -3 -11 -7 -31
-11 -45 -9 -38 -14 -300 -6 -300 4 0 8 -19 8 -42 1 -39 5 -64 18 -123 8 -38
27 -110 33 -125 3 -8 7 -22 9 -30 2 -8 7 -16 13 -18 5 -2 7 -10 4 -18 -3 -8 1
-14 8 -14 7 0 10 -3 6 -6 -8 -8 13 -64 25 -64 5 0 6 -5 3 -10 -4 -6 -1 -18 6
-26 7 -9 14 -23 16 -32 1 -9 8 -21 16 -27 7 -5 12 -15 10 -21 -2 -7 2 -18 9
-25 7 -8 19 -26 25 -41 7 -16 17 -28 23 -28 6 0 9 -4 6 -8 -3 -5 4 -19 15 -30
10 -12 20 -25 21 -29 3 -17 70 -103 80 -103 5 0 7 -4 4 -8 -3 -5 11 -26 31
-48 104 -114 112 -134 58 -142 -18 -3 -61 -18 -150 -53 -36 -15 -33 -14 -67
-23 -16 -5 -28 -12 -28 -17 0 -5 -3 -8 -7 -8 -5 1 -11 0 -15 -1 -5 -1 -11 -3
-15 -4 -24 -4 -73 -30 -73 -38 0 -5 -4 -7 -9 -3 -5 3 -15 0 -23 -7 -7 -7 -20
-14 -28 -16 -8 -2 -21 -10 -27 -19 -7 -9 -13 -13 -13 -8 0 5 -20 -12 -46 -38
-44 -46 -45 -49 -40 -100 2 -28 7 -61 9 -72 3 -11 6 -24 6 -28 2 -16 81 -88
91 -82 6 3 10 2 10 -4 0 -14 82 -33 191 -45 14 -1 30 -6 37 -10 7 -4 16 -5 22
-1 9 6 35 -70 31 -92 -1 -6 3 -14 8 -18 6 -3 8 -12 5 -19 -3 -8 0 -17 5 -21 6
-3 9 -10 6 -15 -3 -5 1 -32 9 -60 8 -28 15 -52 16 -55 0 -3 0 -6 1 -7 0 -2 2
-19 5 -38 2 -19 6 -46 9 -60 2 -14 7 -56 10 -95 4 -38 11 -77 15 -85 4 -8 6
-24 4 -34 -1 -11 0 -24 3 -30 4 -6 6 -29 4 -52 -1 -23 1 -44 6 -47 5 -3 8 -29
6 -59 -1 -29 0 -60 3 -68 4 -8 8 -62 9 -120 2 -58 5 -133 7 -168 2 -34 0 -62
-4 -62 -4 0 -6 -41 -5 -90 1 -50 -1 -90 -5 -90 -3 0 -6 -27 -5 -61 1 -33 -1
-63 -5 -65 -4 -3 -8 -26 -8 -52 -1 -79 -5 -112 -13 -112 -5 0 -7 -12 -6 -28 2
-15 0 -33 -5 -40 -4 -7 -6 -16 -3 -19 3 -3 2 -15 -2 -27 -9 -23 -24 -106 -25
-143 -1 -13 -5 -23 -10 -23 -4 0 -6 -7 -2 -15 3 -8 2 -15 -2 -15 -4 0 -8 -9
-9 -19 -1 -11 -9 -41 -18 -67 -9 -26 -14 -53 -11 -61 3 -7 1 -13 -5 -13 -6 0
-9 -7 -5 -15 3 -8 2 -15 -3 -15 -6 0 -54 -144 -54 -167 0 -4 -7 -14 -14 -21
-11 -12 -15 -26 -12 -48 0 -4 -4 -10 -11 -14 -6 -4 -12 -16 -13 -28 0 -11 -5
-18 -9 -16 -4 3 -8 0 -8 -7 0 -7 -3 -10 -6 -6 -7 7 -105 -42 -116 -57 -4 -6
-8 -7 -8 -3 0 12 -38 -11 -81 -50 -21 -19 -37 -39 -34 -43 3 -5 1 -10 -5 -12
-11 -3 -18 -30 -25 -88 -4 -30 -9 -55 -19 -95 -1 -5 -13 -32 -26 -60 -13 -27
-22 -53 -22 -57 1 -5 -3 -8 -8 -8 -6 0 -10 -4 -10 -9 0 -24 -167 -193 -212
-215 -7 -3 -26 -15 -43 -26 -16 -11 -42 -25 -57 -31 -16 -6 -28 -16 -28 -22 0
-6 -3 -8 -6 -4 -8 8 -144 -63 -144 -75 0 -5 -4 -7 -9 -4 -5 3 -23 -10 -40 -29
-17 -19 -33 -35 -37 -35 -14 2 -99 -139 -106 -175 -1 -11 -7 -23 -12 -26 -4
-4 -9 -39 -10 -78 0 -39 -5 -71 -10 -71 -4 0 -5 -8 -1 -17 3 -10 8 -47 11 -81
2 -35 7 -69 11 -75 4 -7 9 -21 10 -31 2 -11 8 -25 13 -31 5 -7 7 -15 3 -18 -3
-4 0 -7 7 -7 7 0 11 -3 7 -6 -8 -8 54 -124 66 -124 4 0 6 -4 2 -9 -3 -5 4 -16
15 -24 11 -7 18 -16 15 -19 -2 -2 13 -22 35 -43 l39 -38 -51 -19 c-29 -10 -54
-21 -57 -25 -3 -5 -13 -9 -21 -11 -8 -2 -17 -8 -18 -13 -2 -5 -8 -7 -12 -4 -5
3 -32 -17 -59 -44 l-51 -49 0 -189 0 -189 33 -32 c18 -18 38 -32 43 -32 12 0
12 -23 0 -58 -5 -14 -3 -29 4 -37 6 -8 9 -19 5 -24 -20 -33 102 -152 140 -138
7 3 15 1 17 -5 2 -6 13 -12 24 -13 10 -1 27 -6 37 -10 9 -4 23 -5 31 -2 8 3
16 1 18 -4 2 -5 17 -11 33 -12 17 -1 32 -5 35 -9 3 -3 23 -8 45 -10 22 -2 42
-6 46 -10 3 -4 25 -10 50 -12 24 -2 51 -7 60 -10 8 -4 35 -8 60 -9 24 -1 46
-5 49 -9 3 -3 30 -8 60 -11 30 -2 62 -7 70 -10 8 -4 45 -8 81 -10 36 -2 70 -7
77 -11 6 -3 26 -7 44 -7 61 1 134 -5 143 -11 6 -3 28 -6 50 -6 22 -1 65 -4 95
-7 30 -3 84 -8 120 -10 36 -2 106 -7 155 -11 50 -3 124 -8 165 -11 108 -7
1222 -14 1240 -7 8 3 51 7 95 9 44 1 114 6 155 9 41 4 93 8 115 10 48 4 148
15 190 21 17 2 64 7 105 10 41 3 76 9 78 14 1 4 15 6 30 5 25 -2 89 7 152 20
14 3 44 8 67 11 78 9 118 17 134 26 9 4 19 6 22 2 3 -3 14 -2 24 2 10 5 22 7
26 6 4 0 10 6 13 14 3 8 11 12 16 9 13 -8 131 113 123 126 -3 6 -1 10 5 10 12
0 30 42 34 78 2 13 11 33 22 45 10 12 18 25 16 30 -1 4 2 7 8 7 6 0 10 73 10
198 l0 198 -52 50 c-58 55 -108 91 -108 78 0 -5 -5 -1 -11 9 -6 9 -14 15 -20
12 -5 -4 -9 -1 -9 4 0 6 -6 11 -14 11 -23 0 -29 20 -13 38 31 36 90 127 90
139 0 7 4 13 8 13 4 0 19 23 33 50 14 28 24 50 22 50 -3 0 2 16 10 35 8 20 12
40 9 45 -3 4 0 10 7 12 16 6 17 230 0 236 -6 2 -8 10 -5 18 3 8 0 14 -7 14 -6
0 -8 5 -5 10 3 6 3 16 -2 23 -4 6 -8 19 -10 27 -1 8 -7 16 -12 18 -6 2 -11 9
-11 16 0 7 -12 31 -27 53 -33 48 -153 183 -163 183 -4 0 -24 16 -45 36 -21 19
-44 33 -51 30 -8 -3 -14 -2 -14 3 0 5 -19 16 -42 26 -24 9 -63 28 -88 43 -25
14 -47 26 -50 26 -5 0 -45 36 -109 96 -14 14 -42 50 -61 80 -19 30 -38 58 -43
61 -5 3 -8 10 -8 15 1 5 -6 27 -15 49 -9 22 -18 51 -20 64 -2 13 -7 27 -11 30
-4 3 -9 17 -9 31 -3 50 -15 113 -25 131 -5 11 -6 19 -2 19 10 0 -35 40 -70 63
-15 10 -32 15 -37 12 -6 -3 -10 -2 -10 4 0 5 -15 13 -32 17 -18 4 -35 8 -38 9
-3 1 -18 5 -35 10 -34 9 -62 26 -63 38 -2 25 -15 67 -21 67 -4 0 -8 10 -8 22
-1 13 -7 24 -13 26 -5 2 -8 8 -5 13 3 4 -1 22 -10 39 -8 16 -15 32 -15 35 1
15 -24 96 -31 100 -4 3 -6 12 -3 19 3 8 0 17 -5 21 -6 3 -9 11 -6 16 4 5 3 9
-2 9 -4 0 -9 15 -10 33 -2 19 -9 49 -17 68 -7 19 -11 39 -9 46 2 6 0 14 -6 17
-6 4 -8 13 -4 21 3 8 1 15 -5 15 -5 0 -7 11 -4 25 2 14 0 25 -4 25 -5 0 -10
24 -11 52 -1 29 -6 54 -11 56 -5 1 -6 16 -4 32 2 17 0 30 -4 30 -5 0 -8 22 -7
50 1 27 -2 52 -6 55 -5 2 -7 17 -5 32 1 15 0 31 -2 35 -13 21 -18 416 -8 568
3 41 6 96 8 121 1 25 6 50 9 56 4 6 6 22 6 34 -1 13 2 47 6 74 4 28 9 66 10
86 1 20 4 40 7 45 4 9 9 48 12 92 0 12 5 22 10 22 4 0 6 11 4 25 -3 14 -1 25
3 25 5 0 8 10 8 23 -1 25 7 65 20 99 4 13 7 33 6 46 -1 12 3 22 8 22 5 0 7 6
4 14 -3 8 -2 16 3 18 4 2 10 19 13 38 9 64 19 90 36 91 30 1 86 9 111 15 14 4
36 8 49 10 35 4 111 42 111 56 0 6 3 8 7 5 9 -9 63 43 63 60 0 7 5 13 10 13 6
0 10 9 10 19 0 11 4 22 9 25 5 4 8 28 7 55 -2 50 -39 115 -74 128 -8 4 -24 15
-34 25 -10 10 -23 16 -28 13 -4 -3 -10 0 -12 5 -2 6 -10 12 -18 14 -8 1 -24 7
-35 13 -18 10 -195 72 -220 78 -5 1 -23 8 -40 14 -16 7 -34 14 -40 15 -5 1
-19 7 -30 13 -11 6 -29 13 -40 14 -44 8 -40 22 27 93 37 39 65 72 63 74 -1 2
12 20 30 40 19 20 32 39 29 43 -2 4 2 9 10 12 14 6 80 107 69 107 -4 0 0 6 9
13 21 16 99 163 91 171 -3 3 -2 6 4 6 12 0 46 90 35 90 -4 0 -1 4 6 9 7 4 14
19 15 32 0 13 5 26 9 29 4 3 9 17 10 30 2 14 7 28 11 31 4 3 9 21 11 40 2 19
7 42 11 51 4 10 8 38 9 63 0 25 4 45 7 45 8 0 11 85 8 238 0 39 -4 72 -8 72
-4 0 -6 18 -4 39 1 22 -2 43 -7 46 -6 4 -8 11 -5 16 4 5 3 15 -2 22 -4 6 -9
23 -11 37 -2 14 -7 27 -13 28 -5 2 -6 8 -3 13 3 6 -2 21 -10 34 -9 14 -14 25
-11 25 3 0 -4 17 -15 37 -11 21 -20 44 -20 51 0 7 -7 15 -15 18 -8 4 -13 10
-10 14 3 5 -2 15 -10 23 -8 9 -15 20 -15 26 0 6 -5 11 -12 11 -6 0 -8 3 -5 6
8 9 -69 105 -140 176 -72 71 -184 158 -195 152 -4 -3 -8 -1 -8 5 0 11 -28 28
-100 61 -25 12 -57 27 -71 35 -15 8 -35 16 -45 18 -11 1 -23 5 -29 8 -10 6
-49 17 -70 19 -5 1 -16 6 -23 12 -7 6 -15 8 -19 5 -3 -4 -11 -2 -18 3 -6 5
-31 12 -56 15 -24 3 -57 8 -74 11 -35 7 -421 13 -447 7z"/>
</g>
</svg>
